<mxfile host="app.diagrams.net" agent="Mozilla/5.0 (Macintosh; Intel Mac OS X 10.15; rv:141.0) Gecko/20100101 Firefox/141.0" version="28.0.7">
  <diagram name="Page-1" id="9GyxsH42c4VcyAcpglJP">
    <mxGraphModel dx="2066" dy="1134" grid="1" gridSize="10" guides="1" tooltips="1" connect="1" arrows="1" fold="1" page="1" pageScale="1" pageWidth="1100" pageHeight="850" math="0" shadow="0">
      <root>
        <mxCell id="0" />
        <mxCell id="1" parent="0" />
        <mxCell id="OcEBmbgKSJ9BpO2-ke-Y-10" value="" style="rounded=0;whiteSpace=wrap;html=1;fillColor=none;" parent="1" vertex="1">
          <mxGeometry x="20" y="70" width="350" height="600" as="geometry" />
        </mxCell>
        <mxCell id="OcEBmbgKSJ9BpO2-ke-Y-67" style="edgeStyle=orthogonalEdgeStyle;rounded=0;orthogonalLoop=1;jettySize=auto;html=1;exitX=0.25;exitY=1;exitDx=0;exitDy=0;entryX=0;entryY=0.5;entryDx=0;entryDy=0;endArrow=none;endFill=0;" parent="1" source="OcEBmbgKSJ9BpO2-ke-Y-1" target="OcEBmbgKSJ9BpO2-ke-Y-60" edge="1">
          <mxGeometry relative="1" as="geometry" />
        </mxCell>
        <mxCell id="OcEBmbgKSJ9BpO2-ke-Y-1" value="/Set_1" style="rounded=0;whiteSpace=wrap;html=1;fontSize=14;fontStyle=1" parent="1" vertex="1">
          <mxGeometry x="60" y="90" width="120" height="30" as="geometry" />
        </mxCell>
        <mxCell id="OcEBmbgKSJ9BpO2-ke-Y-2" value="" style="endArrow=classic;html=1;rounded=0;exitX=1;exitY=0.5;exitDx=0;exitDy=0;entryX=0;entryY=0.5;entryDx=0;entryDy=0;fillColor=#e51400;strokeColor=#FF0000;" parent="1" source="OcEBmbgKSJ9BpO2-ke-Y-1" target="OcEBmbgKSJ9BpO2-ke-Y-3" edge="1">
          <mxGeometry width="50" height="50" relative="1" as="geometry">
            <mxPoint x="400" y="440" as="sourcePoint" />
            <mxPoint x="270" y="105" as="targetPoint" />
          </mxGeometry>
        </mxCell>
        <mxCell id="OcEBmbgKSJ9BpO2-ke-Y-7" value="&amp;nbsp;references&amp;nbsp;" style="edgeLabel;html=1;align=center;verticalAlign=middle;resizable=0;points=[];" parent="OcEBmbgKSJ9BpO2-ke-Y-2" vertex="1" connectable="0">
          <mxGeometry x="-0.16" y="-2" relative="1" as="geometry">
            <mxPoint as="offset" />
          </mxGeometry>
        </mxCell>
        <mxCell id="D4v3EQQo1xWutkL7d_vN-23" style="edgeStyle=orthogonalEdgeStyle;rounded=0;orthogonalLoop=1;jettySize=auto;html=1;exitX=0.25;exitY=1;exitDx=0;exitDy=0;entryX=0.25;entryY=0;entryDx=0;entryDy=0;curved=1;fillColor=#e3c800;strokeColor=#B09500;" parent="1" source="OcEBmbgKSJ9BpO2-ke-Y-60" target="D4v3EQQo1xWutkL7d_vN-10" edge="1">
          <mxGeometry relative="1" as="geometry">
            <Array as="points">
              <mxPoint x="40" y="170" />
              <mxPoint x="40" y="450" />
              <mxPoint x="90" y="450" />
            </Array>
          </mxGeometry>
        </mxCell>
        <mxCell id="D4v3EQQo1xWutkL7d_vN-25" value="instance&lt;br&gt;of" style="edgeLabel;html=1;align=center;verticalAlign=middle;resizable=0;points=[];" parent="D4v3EQQo1xWutkL7d_vN-23" vertex="1" connectable="0">
          <mxGeometry x="-0.2936" y="10" relative="1" as="geometry">
            <mxPoint as="offset" />
          </mxGeometry>
        </mxCell>
        <mxCell id="OcEBmbgKSJ9BpO2-ke-Y-60" value="PropGroup" style="rounded=0;whiteSpace=wrap;html=1;fontSize=14;fontStyle=1" parent="1" vertex="1">
          <mxGeometry x="110" y="140" width="120" height="30" as="geometry" />
        </mxCell>
        <mxCell id="OcEBmbgKSJ9BpO2-ke-Y-61" value="Prop" style="rounded=0;whiteSpace=wrap;html=1;fontSize=14;fontStyle=1;dashed=1;dashPattern=8 8;" parent="1" vertex="1">
          <mxGeometry x="160" y="190" width="120" height="30" as="geometry" />
        </mxCell>
        <mxCell id="OcEBmbgKSJ9BpO2-ke-Y-62" value="" style="endArrow=none;html=1;rounded=0;exitX=0.25;exitY=1;exitDx=0;exitDy=0;entryX=0;entryY=0.5;entryDx=0;entryDy=0;edgeStyle=orthogonalEdgeStyle;endFill=0;dashed=1;dashPattern=8 8;" parent="1" source="OcEBmbgKSJ9BpO2-ke-Y-60" target="OcEBmbgKSJ9BpO2-ke-Y-61" edge="1">
          <mxGeometry width="50" height="50" relative="1" as="geometry">
            <mxPoint x="270" y="490" as="sourcePoint" />
            <mxPoint x="320" y="440" as="targetPoint" />
          </mxGeometry>
        </mxCell>
        <mxCell id="OcEBmbgKSJ9BpO2-ke-Y-63" value=".x" style="rounded=0;whiteSpace=wrap;html=1;fontSize=14;fontStyle=1;dashed=1;dashPattern=8 8;" parent="1" vertex="1">
          <mxGeometry x="210" y="240" width="120" height="30" as="geometry" />
        </mxCell>
        <mxCell id="OcEBmbgKSJ9BpO2-ke-Y-64" value="" style="endArrow=none;html=1;rounded=0;entryX=0.25;entryY=1;entryDx=0;entryDy=0;exitX=0;exitY=0.5;exitDx=0;exitDy=0;edgeStyle=orthogonalEdgeStyle;dashed=1;dashPattern=8 8;" parent="1" source="OcEBmbgKSJ9BpO2-ke-Y-63" target="OcEBmbgKSJ9BpO2-ke-Y-61" edge="1">
          <mxGeometry width="50" height="50" relative="1" as="geometry">
            <mxPoint x="-80" y="410" as="sourcePoint" />
            <mxPoint x="-30" y="360" as="targetPoint" />
          </mxGeometry>
        </mxCell>
        <mxCell id="OcEBmbgKSJ9BpO2-ke-Y-8" value="" style="rounded=0;whiteSpace=wrap;html=1;fillColor=none;" parent="1" vertex="1">
          <mxGeometry x="410" y="70" width="320" height="220" as="geometry" />
        </mxCell>
        <mxCell id="OcEBmbgKSJ9BpO2-ke-Y-3" value="/Set_1" style="rounded=0;whiteSpace=wrap;html=1;fontSize=14;fontStyle=1" parent="1" vertex="1">
          <mxGeometry x="440" y="90" width="120" height="30" as="geometry" />
        </mxCell>
        <mxCell id="OcEBmbgKSJ9BpO2-ke-Y-42" style="edgeStyle=orthogonalEdgeStyle;rounded=0;orthogonalLoop=1;jettySize=auto;html=1;exitX=1;exitY=0.5;exitDx=0;exitDy=0;entryX=0;entryY=0.5;entryDx=0;entryDy=0;fillColor=#e51400;strokeColor=#FF0000;" parent="1" source="OcEBmbgKSJ9BpO2-ke-Y-5" target="OcEBmbgKSJ9BpO2-ke-Y-21" edge="1">
          <mxGeometry relative="1" as="geometry">
            <Array as="points">
              <mxPoint x="750" y="155" />
              <mxPoint x="750" y="335" />
            </Array>
          </mxGeometry>
        </mxCell>
        <mxCell id="D4v3EQQo1xWutkL7d_vN-4" value="references&amp;nbsp;&lt;br&gt;instanceable" style="edgeLabel;html=1;align=center;verticalAlign=middle;resizable=0;points=[];" parent="OcEBmbgKSJ9BpO2-ke-Y-42" vertex="1" connectable="0">
          <mxGeometry x="-0.6946" relative="1" as="geometry">
            <mxPoint x="1" as="offset" />
          </mxGeometry>
        </mxCell>
        <mxCell id="OcEBmbgKSJ9BpO2-ke-Y-73" style="edgeStyle=orthogonalEdgeStyle;rounded=0;orthogonalLoop=1;jettySize=auto;html=1;exitX=0.25;exitY=1;exitDx=0;exitDy=0;entryX=0;entryY=0.5;entryDx=0;entryDy=0;endArrow=none;endFill=0;" parent="1" source="OcEBmbgKSJ9BpO2-ke-Y-5" target="OcEBmbgKSJ9BpO2-ke-Y-69" edge="1">
          <mxGeometry relative="1" as="geometry" />
        </mxCell>
        <mxCell id="OcEBmbgKSJ9BpO2-ke-Y-5" value="PropGroup" style="rounded=0;whiteSpace=wrap;html=1;fontSize=14;fontStyle=1" parent="1" vertex="1">
          <mxGeometry x="490" y="140" width="120" height="30" as="geometry" />
        </mxCell>
        <mxCell id="OcEBmbgKSJ9BpO2-ke-Y-6" value="" style="endArrow=none;html=1;rounded=0;exitX=0.25;exitY=1;exitDx=0;exitDy=0;entryX=0;entryY=0.5;entryDx=0;entryDy=0;edgeStyle=orthogonalEdgeStyle;endFill=0;" parent="1" source="OcEBmbgKSJ9BpO2-ke-Y-3" target="OcEBmbgKSJ9BpO2-ke-Y-5" edge="1">
          <mxGeometry width="50" height="50" relative="1" as="geometry">
            <mxPoint x="600" y="440" as="sourcePoint" />
            <mxPoint x="650" y="390" as="targetPoint" />
          </mxGeometry>
        </mxCell>
        <mxCell id="OcEBmbgKSJ9BpO2-ke-Y-9" value="set_1.usda" style="text;strokeColor=none;align=center;fillColor=none;html=1;verticalAlign=middle;whiteSpace=wrap;rounded=0;" parent="1" vertex="1">
          <mxGeometry x="545" y="40" width="60" height="30" as="geometry" />
        </mxCell>
        <mxCell id="OcEBmbgKSJ9BpO2-ke-Y-79" style="edgeStyle=orthogonalEdgeStyle;rounded=0;orthogonalLoop=1;jettySize=auto;html=1;exitX=0.25;exitY=1;exitDx=0;exitDy=0;entryX=0;entryY=0.5;entryDx=0;entryDy=0;endArrow=none;endFill=0;" parent="1" source="OcEBmbgKSJ9BpO2-ke-Y-11" target="OcEBmbgKSJ9BpO2-ke-Y-74" edge="1">
          <mxGeometry relative="1" as="geometry" />
        </mxCell>
        <mxCell id="OcEBmbgKSJ9BpO2-ke-Y-11" value="/Set_2" style="rounded=0;whiteSpace=wrap;html=1;fontSize=14;fontStyle=1" parent="1" vertex="1">
          <mxGeometry x="60" y="290" width="120" height="30" as="geometry" />
        </mxCell>
        <mxCell id="OcEBmbgKSJ9BpO2-ke-Y-12" value="" style="endArrow=classic;html=1;rounded=0;exitX=1;exitY=0.5;exitDx=0;exitDy=0;entryX=0;entryY=0.5;entryDx=0;entryDy=0;edgeStyle=orthogonalEdgeStyle;fillColor=#e51400;strokeColor=#FF0000;" parent="1" source="OcEBmbgKSJ9BpO2-ke-Y-11" target="OcEBmbgKSJ9BpO2-ke-Y-14" edge="1">
          <mxGeometry width="50" height="50" relative="1" as="geometry">
            <mxPoint x="270" y="394.5" as="sourcePoint" />
            <mxPoint x="220" y="395" as="targetPoint" />
            <Array as="points">
              <mxPoint x="390" y="305" />
              <mxPoint x="390" y="485" />
            </Array>
          </mxGeometry>
        </mxCell>
        <mxCell id="ptCTsdivQq4vKFDn88M1-2" value="&amp;nbsp;references&amp;nbsp;" style="edgeLabel;html=1;align=center;verticalAlign=middle;resizable=0;points=[];" parent="OcEBmbgKSJ9BpO2-ke-Y-12" vertex="1" connectable="0">
          <mxGeometry x="-0.5955" y="-1" relative="1" as="geometry">
            <mxPoint as="offset" />
          </mxGeometry>
        </mxCell>
        <mxCell id="OcEBmbgKSJ9BpO2-ke-Y-18" value="" style="rounded=0;whiteSpace=wrap;html=1;fillColor=none;" parent="1" vertex="1">
          <mxGeometry x="410" y="350" width="320" height="320" as="geometry" />
        </mxCell>
        <mxCell id="OcEBmbgKSJ9BpO2-ke-Y-19" value="set_2.usda" style="text;strokeColor=none;align=center;fillColor=none;html=1;verticalAlign=middle;whiteSpace=wrap;rounded=0;" parent="1" vertex="1">
          <mxGeometry x="545" y="320" width="60" height="30" as="geometry" />
        </mxCell>
        <mxCell id="OcEBmbgKSJ9BpO2-ke-Y-14" value="/Set_2" style="rounded=0;whiteSpace=wrap;html=1;fontSize=14;fontStyle=1" parent="1" vertex="1">
          <mxGeometry x="440" y="470" width="120" height="30" as="geometry" />
        </mxCell>
        <mxCell id="OcEBmbgKSJ9BpO2-ke-Y-87" style="edgeStyle=orthogonalEdgeStyle;rounded=0;orthogonalLoop=1;jettySize=auto;html=1;exitX=0.25;exitY=1;exitDx=0;exitDy=0;entryX=0;entryY=0.5;entryDx=0;entryDy=0;endArrow=none;endFill=0;" parent="1" source="OcEBmbgKSJ9BpO2-ke-Y-15" target="OcEBmbgKSJ9BpO2-ke-Y-84" edge="1">
          <mxGeometry relative="1" as="geometry" />
        </mxCell>
        <mxCell id="D4v3EQQo1xWutkL7d_vN-2" style="edgeStyle=orthogonalEdgeStyle;rounded=0;orthogonalLoop=1;jettySize=auto;html=1;exitX=1;exitY=0.5;exitDx=0;exitDy=0;entryX=0;entryY=0.5;entryDx=0;entryDy=0;strokeColor=#FF0000;" parent="1" source="OcEBmbgKSJ9BpO2-ke-Y-15" target="OcEBmbgKSJ9BpO2-ke-Y-21" edge="1">
          <mxGeometry relative="1" as="geometry">
            <Array as="points">
              <mxPoint x="750" y="535" />
              <mxPoint x="750" y="335" />
            </Array>
          </mxGeometry>
        </mxCell>
        <mxCell id="D4v3EQQo1xWutkL7d_vN-5" value="&amp;nbsp;references&amp;nbsp;&lt;br&gt;instanceable" style="edgeLabel;html=1;align=center;verticalAlign=middle;resizable=0;points=[];" parent="D4v3EQQo1xWutkL7d_vN-2" vertex="1" connectable="0">
          <mxGeometry x="-0.7256" y="-1" relative="1" as="geometry">
            <mxPoint as="offset" />
          </mxGeometry>
        </mxCell>
        <mxCell id="OcEBmbgKSJ9BpO2-ke-Y-15" value="PropGroup" style="rounded=0;whiteSpace=wrap;html=1;fontSize=14;fontStyle=1" parent="1" vertex="1">
          <mxGeometry x="490" y="520" width="120" height="30" as="geometry" />
        </mxCell>
        <mxCell id="OcEBmbgKSJ9BpO2-ke-Y-16" value="" style="endArrow=none;html=1;rounded=0;exitX=0.25;exitY=1;exitDx=0;exitDy=0;entryX=0;entryY=0.5;entryDx=0;entryDy=0;edgeStyle=orthogonalEdgeStyle;endFill=0;" parent="1" source="OcEBmbgKSJ9BpO2-ke-Y-14" target="OcEBmbgKSJ9BpO2-ke-Y-15" edge="1">
          <mxGeometry width="50" height="50" relative="1" as="geometry">
            <mxPoint x="590" y="730" as="sourcePoint" />
            <mxPoint x="640" y="680" as="targetPoint" />
          </mxGeometry>
        </mxCell>
        <mxCell id="OcEBmbgKSJ9BpO2-ke-Y-54" style="edgeStyle=orthogonalEdgeStyle;rounded=0;orthogonalLoop=1;jettySize=auto;html=1;exitX=0.25;exitY=1;exitDx=0;exitDy=0;entryX=0;entryY=0.5;entryDx=0;entryDy=0;endArrow=none;endFill=0;" parent="1" source="OcEBmbgKSJ9BpO2-ke-Y-50" target="OcEBmbgKSJ9BpO2-ke-Y-51" edge="1">
          <mxGeometry relative="1" as="geometry" />
        </mxCell>
        <mxCell id="OcEBmbgKSJ9BpO2-ke-Y-50" value="/class_Prop" style="rounded=0;whiteSpace=wrap;html=1;fontSize=14;fontStyle=1" parent="1" vertex="1">
          <mxGeometry x="440" y="370" width="120" height="30" as="geometry" />
        </mxCell>
        <mxCell id="OcEBmbgKSJ9BpO2-ke-Y-51" value=".x = 2" style="rounded=0;whiteSpace=wrap;html=1;fontSize=14;fontStyle=1" parent="1" vertex="1">
          <mxGeometry x="490" y="420" width="120" height="30" as="geometry" />
        </mxCell>
        <mxCell id="OcEBmbgKSJ9BpO2-ke-Y-69" value="Prop" style="rounded=0;whiteSpace=wrap;html=1;fontSize=14;fontStyle=1" parent="1" vertex="1">
          <mxGeometry x="540" y="190" width="120" height="30" as="geometry" />
        </mxCell>
        <mxCell id="OcEBmbgKSJ9BpO2-ke-Y-71" value=".x" style="rounded=0;whiteSpace=wrap;html=1;fontSize=14;fontStyle=1" parent="1" vertex="1">
          <mxGeometry x="590" y="240" width="120" height="30" as="geometry" />
        </mxCell>
        <mxCell id="OcEBmbgKSJ9BpO2-ke-Y-72" value="" style="endArrow=none;html=1;rounded=0;entryX=0.25;entryY=1;entryDx=0;entryDy=0;exitX=0;exitY=0.5;exitDx=0;exitDy=0;edgeStyle=orthogonalEdgeStyle;" parent="1" source="OcEBmbgKSJ9BpO2-ke-Y-71" target="OcEBmbgKSJ9BpO2-ke-Y-69" edge="1">
          <mxGeometry width="50" height="50" relative="1" as="geometry">
            <mxPoint x="300" y="410" as="sourcePoint" />
            <mxPoint x="350" y="360" as="targetPoint" />
          </mxGeometry>
        </mxCell>
        <mxCell id="D4v3EQQo1xWutkL7d_vN-24" style="edgeStyle=orthogonalEdgeStyle;rounded=0;orthogonalLoop=1;jettySize=auto;html=1;exitX=0.25;exitY=1;exitDx=0;exitDy=0;curved=1;fillColor=#e3c800;strokeColor=#B09500;" parent="1" source="OcEBmbgKSJ9BpO2-ke-Y-74" edge="1">
          <mxGeometry relative="1" as="geometry">
            <mxPoint x="90" y="490" as="targetPoint" />
            <Array as="points">
              <mxPoint x="90" y="370" />
            </Array>
          </mxGeometry>
        </mxCell>
        <mxCell id="D4v3EQQo1xWutkL7d_vN-26" value="instance&lt;br&gt;of" style="edgeLabel;html=1;align=center;verticalAlign=middle;resizable=0;points=[];" parent="D4v3EQQo1xWutkL7d_vN-24" vertex="1" connectable="0">
          <mxGeometry x="0.1647" y="4" relative="1" as="geometry">
            <mxPoint as="offset" />
          </mxGeometry>
        </mxCell>
        <mxCell id="OcEBmbgKSJ9BpO2-ke-Y-74" value="PropGroup" style="rounded=0;whiteSpace=wrap;html=1;fontSize=14;fontStyle=1" parent="1" vertex="1">
          <mxGeometry x="110" y="340" width="120" height="30" as="geometry" />
        </mxCell>
        <mxCell id="OcEBmbgKSJ9BpO2-ke-Y-75" value="Prop" style="rounded=0;whiteSpace=wrap;html=1;fontSize=14;fontStyle=1;dashed=1;dashPattern=12 12;" parent="1" vertex="1">
          <mxGeometry x="160" y="390" width="120" height="30" as="geometry" />
        </mxCell>
        <mxCell id="OcEBmbgKSJ9BpO2-ke-Y-76" value="" style="endArrow=none;html=1;rounded=0;exitX=0.25;exitY=1;exitDx=0;exitDy=0;entryX=0;entryY=0.5;entryDx=0;entryDy=0;edgeStyle=orthogonalEdgeStyle;endFill=0;dashed=1;dashPattern=12 12;" parent="1" source="OcEBmbgKSJ9BpO2-ke-Y-74" target="OcEBmbgKSJ9BpO2-ke-Y-75" edge="1">
          <mxGeometry width="50" height="50" relative="1" as="geometry">
            <mxPoint x="270" y="690" as="sourcePoint" />
            <mxPoint x="320" y="640" as="targetPoint" />
          </mxGeometry>
        </mxCell>
        <mxCell id="OcEBmbgKSJ9BpO2-ke-Y-77" value=".x" style="rounded=0;whiteSpace=wrap;html=1;fontSize=14;fontStyle=1;dashed=1;dashPattern=12 12;" parent="1" vertex="1">
          <mxGeometry x="210" y="440" width="120" height="30" as="geometry" />
        </mxCell>
        <mxCell id="OcEBmbgKSJ9BpO2-ke-Y-78" value="" style="endArrow=none;html=1;rounded=0;entryX=0.25;entryY=1;entryDx=0;entryDy=0;exitX=0;exitY=0.5;exitDx=0;exitDy=0;edgeStyle=orthogonalEdgeStyle;dashed=1;dashPattern=12 12;" parent="1" source="OcEBmbgKSJ9BpO2-ke-Y-77" target="OcEBmbgKSJ9BpO2-ke-Y-75" edge="1">
          <mxGeometry width="50" height="50" relative="1" as="geometry">
            <mxPoint x="-80" y="610" as="sourcePoint" />
            <mxPoint x="-30" y="560" as="targetPoint" />
          </mxGeometry>
        </mxCell>
        <mxCell id="OcEBmbgKSJ9BpO2-ke-Y-84" value="Prop" style="rounded=0;whiteSpace=wrap;html=1;fontSize=14;fontStyle=1" parent="1" vertex="1">
          <mxGeometry x="540" y="570" width="120" height="30" as="geometry" />
        </mxCell>
        <mxCell id="OcEBmbgKSJ9BpO2-ke-Y-85" value=".x" style="rounded=0;whiteSpace=wrap;html=1;fontSize=14;fontStyle=1" parent="1" vertex="1">
          <mxGeometry x="590" y="620" width="120" height="30" as="geometry" />
        </mxCell>
        <mxCell id="OcEBmbgKSJ9BpO2-ke-Y-86" value="" style="endArrow=none;html=1;rounded=0;entryX=0.25;entryY=1;entryDx=0;entryDy=0;exitX=0;exitY=0.5;exitDx=0;exitDy=0;edgeStyle=orthogonalEdgeStyle;" parent="1" source="OcEBmbgKSJ9BpO2-ke-Y-85" target="OcEBmbgKSJ9BpO2-ke-Y-84" edge="1">
          <mxGeometry width="50" height="50" relative="1" as="geometry">
            <mxPoint x="300" y="790" as="sourcePoint" />
            <mxPoint x="350" y="740" as="targetPoint" />
          </mxGeometry>
        </mxCell>
        <mxCell id="OcEBmbgKSJ9BpO2-ke-Y-91" value="root.usda" style="text;strokeColor=none;align=center;fillColor=none;html=1;verticalAlign=middle;whiteSpace=wrap;rounded=0;" parent="1" vertex="1">
          <mxGeometry x="180" y="40" width="60" height="30" as="geometry" />
        </mxCell>
        <mxCell id="OcEBmbgKSJ9BpO2-ke-Y-47" value="" style="rounded=0;whiteSpace=wrap;html=1;fillColor=none;" parent="1" vertex="1">
          <mxGeometry x="780" y="250" width="260" height="220" as="geometry" />
        </mxCell>
        <mxCell id="OcEBmbgKSJ9BpO2-ke-Y-48" value="prop_group.usda" style="text;strokeColor=none;align=center;fillColor=none;html=1;verticalAlign=middle;whiteSpace=wrap;rounded=0;" parent="1" vertex="1">
          <mxGeometry x="881.1111111111111" y="220" width="57.77777777777777" height="27.073170731707318" as="geometry" />
        </mxCell>
        <mxCell id="OcEBmbgKSJ9BpO2-ke-Y-21" value="/PropGroup" style="rounded=0;whiteSpace=wrap;html=1;fontSize=14;fontStyle=1" parent="1" vertex="1">
          <mxGeometry x="800" y="320" width="120" height="30" as="geometry" />
        </mxCell>
        <mxCell id="OcEBmbgKSJ9BpO2-ke-Y-38" style="edgeStyle=orthogonalEdgeStyle;rounded=0;orthogonalLoop=1;jettySize=auto;html=1;exitX=1;exitY=0.5;exitDx=0;exitDy=0;entryX=1;entryY=0.5;entryDx=0;entryDy=0;fillColor=#e51400;strokeColor=#FF0000;" parent="1" source="OcEBmbgKSJ9BpO2-ke-Y-22" target="OcEBmbgKSJ9BpO2-ke-Y-27" edge="1">
          <mxGeometry relative="1" as="geometry" />
        </mxCell>
        <mxCell id="OcEBmbgKSJ9BpO2-ke-Y-39" value="inherits" style="edgeLabel;html=1;align=center;verticalAlign=middle;resizable=0;points=[];" parent="OcEBmbgKSJ9BpO2-ke-Y-38" vertex="1" connectable="0">
          <mxGeometry x="-0.2" y="2" relative="1" as="geometry">
            <mxPoint x="1" as="offset" />
          </mxGeometry>
        </mxCell>
        <mxCell id="OcEBmbgKSJ9BpO2-ke-Y-22" value="Prop" style="rounded=0;whiteSpace=wrap;html=1;fontSize=14;fontStyle=1" parent="1" vertex="1">
          <mxGeometry x="850" y="370" width="120" height="30" as="geometry" />
        </mxCell>
        <mxCell id="OcEBmbgKSJ9BpO2-ke-Y-23" value="" style="endArrow=none;html=1;rounded=0;exitX=0.25;exitY=1;exitDx=0;exitDy=0;entryX=0;entryY=0.5;entryDx=0;entryDy=0;edgeStyle=orthogonalEdgeStyle;endFill=0;" parent="1" source="OcEBmbgKSJ9BpO2-ke-Y-21" target="OcEBmbgKSJ9BpO2-ke-Y-22" edge="1">
          <mxGeometry width="50" height="50" relative="1" as="geometry">
            <mxPoint x="960" y="670" as="sourcePoint" />
            <mxPoint x="1010" y="620" as="targetPoint" />
          </mxGeometry>
        </mxCell>
        <mxCell id="OcEBmbgKSJ9BpO2-ke-Y-25" value=".x = 1" style="rounded=0;whiteSpace=wrap;html=1;fontSize=14;fontStyle=1" parent="1" vertex="1">
          <mxGeometry x="900" y="420" width="120" height="30" as="geometry" />
        </mxCell>
        <mxCell id="OcEBmbgKSJ9BpO2-ke-Y-26" value="" style="endArrow=none;html=1;rounded=0;entryX=0.25;entryY=1;entryDx=0;entryDy=0;exitX=0;exitY=0.5;exitDx=0;exitDy=0;edgeStyle=orthogonalEdgeStyle;" parent="1" source="OcEBmbgKSJ9BpO2-ke-Y-25" target="OcEBmbgKSJ9BpO2-ke-Y-22" edge="1">
          <mxGeometry width="50" height="50" relative="1" as="geometry">
            <mxPoint x="610" y="590" as="sourcePoint" />
            <mxPoint x="660" y="540" as="targetPoint" />
          </mxGeometry>
        </mxCell>
        <mxCell id="OcEBmbgKSJ9BpO2-ke-Y-27" value="/class_Prop" style="rounded=0;whiteSpace=wrap;html=1;fontSize=14;fontStyle=1" parent="1" vertex="1">
          <mxGeometry x="800" y="270" width="120" height="30" as="geometry" />
        </mxCell>
        <mxCell id="D4v3EQQo1xWutkL7d_vN-9" style="edgeStyle=orthogonalEdgeStyle;rounded=0;orthogonalLoop=1;jettySize=auto;html=1;exitX=0.25;exitY=1;exitDx=0;exitDy=0;entryX=0;entryY=0.5;entryDx=0;entryDy=0;endArrow=none;endFill=0;" parent="1" source="D4v3EQQo1xWutkL7d_vN-10" target="D4v3EQQo1xWutkL7d_vN-11" edge="1">
          <mxGeometry relative="1" as="geometry" />
        </mxCell>
        <mxCell id="D4v3EQQo1xWutkL7d_vN-10" value="/__Prototype_1" style="rounded=0;whiteSpace=wrap;html=1;fontSize=14;fontStyle=1" parent="1" vertex="1">
          <mxGeometry x="60" y="490" width="120" height="30" as="geometry" />
        </mxCell>
        <mxCell id="D4v3EQQo1xWutkL7d_vN-11" value="Prop" style="rounded=0;whiteSpace=wrap;html=1;fontSize=14;fontStyle=1" parent="1" vertex="1">
          <mxGeometry x="110" y="540" width="120" height="30" as="geometry" />
        </mxCell>
        <mxCell id="D4v3EQQo1xWutkL7d_vN-12" value=".x = ??" style="rounded=0;whiteSpace=wrap;html=1;fontSize=14;fontStyle=1" parent="1" vertex="1">
          <mxGeometry x="160" y="590" width="120" height="30" as="geometry" />
        </mxCell>
        <mxCell id="D4v3EQQo1xWutkL7d_vN-13" value="" style="endArrow=none;html=1;rounded=0;entryX=0.25;entryY=1;entryDx=0;entryDy=0;exitX=0;exitY=0.5;exitDx=0;exitDy=0;edgeStyle=orthogonalEdgeStyle;" parent="1" source="D4v3EQQo1xWutkL7d_vN-12" target="D4v3EQQo1xWutkL7d_vN-11" edge="1">
          <mxGeometry width="50" height="50" relative="1" as="geometry">
            <mxPoint x="-130" y="760" as="sourcePoint" />
            <mxPoint x="-80" y="710" as="targetPoint" />
          </mxGeometry>
        </mxCell>
        <mxCell id="D4v3EQQo1xWutkL7d_vN-27" value="Dashed lines indicate that opinions come from prototype." style="text;strokeColor=none;align=left;fillColor=none;html=1;verticalAlign=middle;whiteSpace=wrap;rounded=0;" parent="1" vertex="1">
          <mxGeometry x="40" y="630" width="310" height="40" as="geometry" />
        </mxCell>
      </root>
    </mxGraphModel>
  </diagram>
</mxfile>
